<?xml version="1.0" encoding="UTF-8"?>
<svg width="1024pt" height="1024pt" version="1.0" viewBox="0 0 1024 1024" xmlns="http://www.w3.org/2000/svg">
  <rect x="4.9516" y="4.9516" width="1014.1" height="1014.1" rx="100" ry="100" fill="#fcf8f5"/>
  <path transform="scale(.75)" d="m674.11 1160.2c-27.852-1.9979-57.627-6.7436-86.196-13.739-101.84-24.936-167.89-77.025-189.39-149.35-4.5964-15.469-5.3051-21.439-5.4025-45.502-0.0975-24.089 0.58267-30.274 5.2209-47.48 6.7357-24.987 23.076-58.623 38.973-80.226 14.909-20.26 45.05-50.463 73.03-73.179 25.243-20.495 28.649-26.62 22.128-39.801-2.2778-4.6038-3.9445-8.547-3.7037-8.7626s9.1263-2.6936 19.746-5.5066c19.767-5.2363 45.995-17.065 57.796-26.066 9.4227-7.187 13.579-16.99 12.401-29.248-1.1391-11.855-3.8652-14.656-26.193-26.91-21.027-11.54-30.853-22.156-38.952-42.081-7.9546-19.57-21.693-35.661-36.224-42.428-11.79-5.4901-29.759-6.19-42.6-1.6592-4.6589 1.6438-8.8142 2.6452-9.2339 2.2255-0.41975-0.41975 2.8492-9.8304 7.2643-20.913 24.347-61.113 52.261-95.432 93.477-114.93 11.875-5.6178 13.591-5.8738 39.379-5.8753 52.226-3e-3 116.96 15.969 173.84 42.889 38.701 18.318 77.42 45.127 84.252 58.337 3.9582 7.6542 8.7135 36.18 8.7235 52.33 0.024 38.496-15.707 82.879-41.514 117.13-13.91 18.46-27.722 31.408-51.461 48.242-25.318 17.954-27.697 20.58-27.697 30.571 0 10.314 0.25367 10.47 40.092 24.735 29.66 10.62 41.398 15.57 94.757 39.961 37.825 17.29 50.36 21.06 69.832 21.001 28.487-0.0853 56.052-15.088 86.148-46.889 12.93-13.662 18.539-18.372 19.681-16.525 9.8914 16.005 12.457 103.99 4.1545 142.47-18.567 86.059-64.775 153.92-137.6 202.07-33.497 22.149-83.736 42.226-125.48 50.144-9.0257 1.7122-16.757 3.113-17.181 3.113s-0.77063-8.407-0.77063-18.682c0-17.063-0.38109-18.949-4.3969-21.762-5.9973-4.2006-12.622-3.8661-17.365 0.877-3.3945 3.3945-3.9567 6.5946-3.9567 22.52 0 17.579-0.23614 18.627-4.4513 19.756-5.8866 1.5775-54.352 1.0683-81.128-0.8524zm162.74-116.67c47.934-5.0392 84.53-20.957 116.94-50.866 26.54-24.489 50.579-64.518 52.684-87.727 1.013-11.172 0.8157-11.787-5.947-18.55-3.8472-3.8471-8.8294-6.9948-11.072-6.9948-2.2422 0-16.353 2.7719-31.357 6.1598-26.274 5.9326-28.419 6.1132-58.157 4.8973-33.321-1.3625-33.815-1.2387-36.418 9.1326-2.0804 8.2888 5.5688 14.669 20.043 16.717 18.645 2.639 55.577 1.5226 74.551-2.2534 9.5745-1.9054 17.871-3.001 18.438-2.4347 3.1231 3.1231-19.035 37.407-34.589 53.516-22.555 23.361-46.005 36.719-80.817 46.038-26.324 7.0469-71.363 7.5598-97.913 1.115-37.814-9.1791-69.707-26.061-87.592-46.366-17.292-19.632-28.652-50.19-25.807-69.42 0.66731-4.5099 2.6059-14.208 4.308-21.551 3.4917-15.065 3.0047-17.684-4.16-22.379-10.546-6.91-19.806 2.3879-24.747 24.849-2.9887 13.585-2.432 42.481 1.0808 56.098 18.547 71.891 111.44 120.43 210.53 110.02zm-185.41-471.47c8.3033-3.4761 20.594-17.222 25.704-28.746 4.3754-9.8681 6.7462-32.956 4.5734-44.538-4.2379-22.59-29.774-28.897-48.5-11.979-17.216 15.554-25.384 53.239-15.627 72.102 7.1649 13.851 20.146 18.899 33.849 13.162z" fill="#f3b92a" stroke="#f3b92a" stroke-width="13.333"/>
  <path transform="scale(.75)" d="m747.82 1292.5c-3.8083-1.1055-16.406-1.6299-27.995-1.1655l-21.071 0.8444-1.1842-7.4053c-1.5391-9.6248-10.138-18.135-22.995-22.759-8.5599-3.0781-9.603-3.9777-6.9023-5.9525 3.7828-2.7661 51.955-16.203 84.391-23.539 29.749-6.7288 32.058-8.8685 33.046-30.633l0.70471-15.518 9.8741-1.358c5.4308-0.747 10.578-0.5954 11.439 0.3367 2.2668 2.4554 8.2344 37.125 8.5247 49.525 0.23966 10.236-0.0857 10.909-10.257 21.208-5.7774 5.85-12.655 11.787-15.283 13.194-2.6283 1.4066-9.9606 7.7394-16.294 14.073-11.862 11.862-14.026 12.624-25.997 9.1486z" fill="#e9841e" stroke="#e9841e" stroke-width="13.333"/>
  <path transform="scale(.75)" d="m511.4 1265.2c-3.2643-0.8306-11.389-1.6155-18.055-1.7443l-12.12-0.2341-0.9076-10.944c-0.74974-9.0409-2.0418-12.115-7.429-17.673-3.5867-3.7006-9.0752-7.7862-12.197-9.0792-3.1214-1.2929-5.6753-3.0405-5.6753-3.8836 0-3.4286 37.523-8.4977 87.925-11.878 19.861-1.3321 31.029-2.9429 34.028-4.9081 4.663-3.0553 8.5876-13.766 8.6064-23.488 0.0103-5.3137 0.41763-5.6065 6.1934-4.4513 3.4003 0.68 7.0529 1.2364 8.1168 1.2364 2.8362 0 0.86169 47.307-2.2374 53.605-1.8835 3.8276-10.417 9.0019-33.508 20.318-31.985 15.674-37.414 17.025-52.742 13.125z" fill="#e9841e" stroke="#e9841e" stroke-width="13.333"/>
  <path transform="scale(.75)" d="m445.55 676.32c-19.447-2.22-41.414-6.9786-58.353-12.641-27.332-9.1364-72.572-31.149-79.09-38.482-3.7638-4.2348-4.0766-8.5052-0.69945-9.5494 1.3464-0.41632 14.723-1.7367 29.727-2.9343 47.276-3.7735 65.567-7.6565 87.432-18.561 12.359-6.1639 18.695-10.493 37.39-25.545 14.985-12.065 21.543-15.349 30.619-15.334 15.61 0.0257 25.611 8.8752 34.772 30.768 12.935 30.91 20.938 39.49 51.507 55.211 7.1495 3.677 12.783 7.3948 12.519 8.2618-0.75608 2.4804-25.524 14.283-40.153 19.134-22.642 7.508-37.014 9.7255-67.2 10.369-15.003 0.31961-32.315 6e-3 -38.47-0.69641zm54.683-63.615c3.669-4.6014 6.1694-12.501 6.1694-19.491 0-6.4231-6.1917-13.369-11.917-13.369-9.2659 0-15.539 8.4914-17.053 23.082-0.65456 6.3092-0.33457 7.3856 3.2659 10.986 3.5098 3.5094 4.7474 3.906 10.253 3.2854 4.622-0.52097 7.0525-1.6975 9.2816-4.4931z" fill="#e9841e" stroke="#e9841e" stroke-width="13.333"/>
  <path transform="scale(.75)" d="m853.33 440.27c-8.4634-6.2304-31.755-19.376-51.76-29.212-64.517-31.723-126.33-48.163-192.42-51.179l-38.545-1.7589 37.45-46.532c69.448-86.289 125.57-152 182.04-213.13 25.068-27.138 25.374-27.357 27.436-19.646 9.6609 36.123 55.387 339.92 55.387 367.98 0 7.0537-2.0915 6.3573-19.585-6.5204zm-68.913-93.355c14.446-6.8552 30.317-23.217 38.121-39.3 9.4297-19.435 9.9316-58.803 0.9611-75.397-12.228-22.621-31.437-35.267-67.931-44.723-22.12-5.732-25.033-5.4144-28.263 3.0821-5.3502 14.072-41.843 139.94-41.843 144.32 0 4.0371 23.257 11.996 50.361 17.233 12.611 2.4369 38.27-0.31825 48.595-5.2179z" fill="#e9841e" stroke="#e9841e" stroke-width="13.333"/>
  <path transform="scale(.75)" d="m732.17 317.62c-2.2052-0.47386-4.1646-1.0167-4.3542-1.2063-0.18959-0.1896 5.0063-18.582 11.546-40.872 16.951-57.771 15.056-52.069 17.299-52.065 3.0532 6e-3 7.0834 1.3295 13.405 4.401 9.8778 4.7998 16.662 12.668 20.325 23.573 1.9181 5.7107 2.6746 18.885 1.4547 25.334-4.0008 21.15-17.296 37.364-33.444 40.786-5.7691 1.2225-20.64 1.2502-26.231 0.0489z" fill="#e9841e" stroke="#e9841e" stroke-width="13.333"/>
  <g transform="translate(0 1024) scale(.1 -.1)" fill="#513407">
    <path d="m6096 9946c-22-8-68-43-103-78-130-127-625-672-889-978-276-321-657-792-917-1137-216-288-254-343-262-392-6-34-22-55-107-138-55-54-124-131-155-171-160-212-303-533-389-872-39-157-39-157-179-225-147-72-309-105-612-125-92-6-191-15-220-21-196-39-240-275-77-418 132-116 530-293 819-365 188-47 412-76 585-76 85 0 86 0 135-41 28-22 56-46 63-53 10-10-14-34-120-121-156-128-399-367-488-480-221-280-354-560-415-875-26-131-31-362-11-499 46-313 182-569 435-821 240-239 497-395 861-521l135-47 6-120-73-6c-40-3-136-11-213-17s-201-19-276-29c-309-43-425-91-464-194-35-90 17-172 146-233l79-37v-78c0-95 15-136 66-174 36-28 41-29 188-34 132-4 158-8 206-30 85-38 135-33 260 24 194 89 399 194 444 226 111 80 156 217 156 479v104l53-7c251-31 396-39 655-40h283l-3-56c-4-65 24-52-278-125-266-65-410-109-507-156-138-66-195-140-172-224 17-60 55-93 175-150l112-54 7-56c17-136 125-189 309-151 106 22 177 21 207-3 67-52 130-64 194-37 45 19 370 293 456 383 132 140 144 219 84 528-20 103-35 188-33 190 2 1 44 14 93 29 323 99 691 293 955 502 107 85 294 273 383 384 157 195 315 476 402 714 45 122 107 363 132 511 23 138 26 559 5 700-51 337-105 486-188 521-92 39-153 8-279-141-229-272-395-377-595-376-114 0-175 20-450 148-321 149-503 227-780 329-10 4-3 12 25 26 93 48 271 202 373 323 280 333 427 749 408 1160-4 77-10 160-15 185-7 35-6 47 5 53 27 15 44 65 44 130 0 76-65 657-115 1027-53 393-137 939-221 1440-99 587-136 781-157 813-34 52-117 76-181 53zm98-566c131-739 227-1360 307-1980 5-41 21-174 34-295 14-121 28-239 31-263l6-43-78 59c-472 355-1169 614-1807 673-117 11-368 7-414-7-13-3-23-2-23 2 1 10 224 297 385 494 157 193 588 712 664 800 286 331 462 527 690 768 112 119 137 141 143 125 4-10 32-160 62-333zm-1424-2055c257-32 530-98 786-190 343-124 699-325 868-488 72-70 85-102 111-274 42-279-6-568-140-838-130-264-317-466-603-653-125-81-152-113-152-181 0-66 26-83 230-150 229-76 385-140 664-272 356-169 451-203 595-215 241-18 515 137 751 425 87 106 86 106 118-22 39-158 47-243 47-517-1-285-13-395-70-621-56-219-182-511-295-684-274-417-678-743-1155-933-189-75-429-141-577-158l-58-7v132 133l-29 29c-31 31-75 38-112 19-39-21-49-62-49-198v-130l-27-7c-53-13-506-7-678 10-1138 109-1883 587-2036 1306-32 149-32 391 0 539 104 487 384 871 957 1311 101 77 119 158 54 248l-30 41 28 6c218 49 309 80 454 156 165 87 223 160 216 274-6 92-35 123-183 200-184 96-251 166-310 324-15 41-39 95-53 120-32 56-115 145-164 176-55 35-151 64-211 64-64 0-160-24-206-51-18-11-35-18-37-16-9 9 85 258 145 383 157 326 351 539 608 668 39 20 89 40 110 45 62 15 299 12 433-4zm-955-1259c64-38 101-89 142-196 46-121 83-187 140-250 58-65 107-98 243-166 61-30 110-58 110-63 0-17-39-42-135-86-256-119-488-162-815-152-261 8-486 54-721 147-153 60-426 199-465 235-41 39-46 81-11 94 12 4 108 13 212 20 483 30 673 97 944 330 45 39 92 76 104 83 83 44 180 46 252 4zm703-4836c-4-162-6-180-28-225l-25-50-235-118c-261-131-243-127-395-93-38 9-109 16-156 16h-86l1 73c1 55-4 80-19 106-27 46-81 87-149 115l-58 24 49 15c114 38 312 62 639 80 215 12 233 15 263 36 44 32 61 76 61 159v69l71-16 71-15-4-176zm1579-25c37-186 42-276 15-320-10-16-62-69-114-117-88-82-120-105-102-76 4 7 3 8-5 4-6-4-9-11-6-16 5-8-121-124-170-156-24-15-28-15-78 7-58 26-175 31-322 15l-81-8-2 33c-7 102-67 164-197 205-83 26-86 28-64 40 71 39 358 120 633 179 93 20 181 42 195 49 66 34 91 94 91 215v90l48 6c26 4 52 8 57 10 6 2 23 3 40 2l29-2 33-160z"/>
    <path d="m5482 8848c-12-15-38-99-206-665-69-233-126-434-126-447 0-14 8-30 18-35s87-28 172-51c324-87 512-61 675 91 81 76 129 148 167 252 26 69 31 101 35 202 6 143-5 208-53 305-86 170-223 255-541 335-116 29-127 30-141 13zm292-312c100-46 161-138 172-258 16-174-73-348-210-409-55-24-154-30-239-16-40 7-47 12-42 25 3 9 49 163 101 342s97 331 100 339c6 17 50 9 118-23z"/>
    <path d="m4846 6645c-132-47-237-235-239-430-2-136 33-214 113-255 78-40 165-22 244 51 166 151 208 492 75 604-52 43-124 55-193 30z"/>
    <path d="m4800 3849c-43-17-60-40-84-118-86-273-34-576 139-801 394-513 1333-679 1984-351 261 132 509 393 640 671 85 181 90 273 22 341-55 55-77 57-221 21-255-65-386-81-535-62-210 26-208 26-238-10-35-41-35-81 1-120 24-27 38-32 127-45 193-29 438-15 632 34 43 11 79 18 81 16 9-8-74-168-135-259-121-182-308-344-494-430-96-44-249-91-369-113-148-27-431-24-579 5-407 82-700 272-836 543-81 160-92 328-34 526 19 63 20 76 9 104-9 20-26 37-46 45-19 8-35 14-36 13-2 0-14-5-28-10z"/>
    <path d="m3650 5868c-31-21-38-33-55-101-18-71-18-80-5-105 24-41 61-58 106-47 47 12 75 51 93 128 10 47 10 60-3 85-31 61-82 76-136 40z"/>
  </g>
</svg>
