<?xml version="1.0" encoding="UTF-8"?>
<svg width="1024pt" height="1024pt" version="1.0" viewBox="0 0 1024 1024" xmlns="http://www.w3.org/2000/svg">
   <rect x="4.9516" y="4.9516" width="1014.1" height="1014.1" rx="100" ry="100" fill="#fcf8f5"/>
   <path transform="scale(.75)" d="m674.11 1160.2c-27.852-1.9979-57.627-6.7436-86.196-13.739-101.84-24.936-167.89-77.025-189.39-149.35-4.5964-15.469-5.3051-21.439-5.4025-45.502-0.0975-24.089 0.58267-30.274 5.2209-47.48 6.7357-24.987 23.076-58.623 38.973-80.226 14.909-20.26 45.05-50.463 73.03-73.179 25.243-20.495 28.649-26.62 22.128-39.801-2.2778-4.6038-3.9445-8.547-3.7037-8.7626s9.1263-2.6936 19.746-5.5066c19.767-5.2363 45.995-17.065 57.796-26.066 9.4227-7.187 13.579-16.99 12.401-29.248-1.1391-11.855-3.8652-14.656-26.193-26.91-21.027-11.54-30.853-22.156-38.952-42.081-7.9546-19.57-21.693-35.661-36.224-42.428-11.79-5.4901-29.759-6.19-42.6-1.6592-4.6589 1.6438-8.8142 2.6452-9.2339 2.2255-0.41975-0.41975 2.8492-9.8304 7.2643-20.913 24.347-61.113 52.261-95.432 93.477-114.93 11.875-5.6178 13.591-5.8738 39.379-5.8753 52.226-3e-3 116.96 15.969 173.84 42.889 38.701 18.318 77.42 45.127 84.252 58.337 3.9582 7.6542 8.7135 36.18 8.7235 52.33 0.024 38.496-15.707 82.879-41.514 117.13-13.91 18.46-27.722 31.408-51.461 48.242-25.318 17.954-27.697 20.58-27.697 30.571 0 10.314 0.25367 10.47 40.092 24.735 29.66 10.62 41.398 15.57 94.757 39.961 37.825 17.29 50.36 21.06 69.832 21.001 28.487-0.0853 56.052-15.088 86.148-46.889 12.93-13.662 18.539-18.372 19.681-16.525 9.8914 16.005 12.457 103.99 4.1545 142.47-18.567 86.059-64.775 153.92-137.6 202.07-33.497 22.149-83.736 42.226-125.48 50.144-9.0257 1.7122-16.757 3.113-17.181 3.113s-0.77063-8.407-0.77063-18.682c0-17.063-0.38109-18.949-4.3969-21.762-5.9973-4.2006-12.622-3.8661-17.365 0.877-3.3945 3.3945-3.9567 6.5946-3.9567 22.52 0 17.579-0.23614 18.627-4.4513 19.756-5.8866 1.5775-54.352 1.0683-81.128-0.8524zm162.74-116.67c47.934-5.0392 84.53-20.957 116.94-50.866 26.54-24.489 50.579-64.518 52.684-87.727 1.013-11.172 0.8157-11.787-5.947-18.55-3.8472-3.8471-8.8294-6.9948-11.072-6.9948-2.2422 0-16.353 2.7719-31.357 6.1598-26.274 5.9326-28.419 6.1132-58.157 4.8973-33.321-1.3625-33.815-1.2387-36.418 9.1326-2.0804 8.2888 5.5688 14.669 20.043 16.717 18.645 2.639 55.577 1.5226 74.551-2.2534 9.5745-1.9054 17.871-3.001 18.438-2.4347 3.1231 3.1231-19.035 37.407-34.589 53.516-22.555 23.361-46.005 36.719-80.817 46.038-26.324 7.0469-71.363 7.5598-97.913 1.115-37.814-9.1791-69.707-26.061-87.592-46.366-17.292-19.632-28.652-50.19-25.807-69.42 0.66731-4.5099 2.6059-14.208 4.308-21.551 3.4917-15.065 3.0047-17.684-4.16-22.379-10.546-6.91-19.806 2.3879-24.747 24.849-2.9887 13.585-2.432 42.481 1.0808 56.098 18.547 71.891 111.44 120.43 210.53 110.02zm-185.41-471.47c8.3033-3.4761 20.594-17.222 25.704-28.746 4.3754-9.8681 6.7462-32.956 4.5734-44.538-4.2379-22.59-29.774-28.897-48.5-11.979-17.216 15.554-25.384 53.239-15.627 72.102 7.1649 13.851 20.146 18.899 33.849 13.162z" fill="#f3b92a" stroke="#f3b92a" stroke-width="13.333"/>
   <path transform="scale(.75)" d="m747.82 1292.5c-3.8083-1.1055-16.406-1.6299-27.995-1.1655l-21.071 0.8444-1.1842-7.4053c-1.5391-9.6248-10.138-18.135-22.995-22.759-8.5599-3.0781-9.603-3.9777-6.9023-5.9525 3.7828-2.7661 51.955-16.203 84.391-23.539 29.749-6.7288 32.058-8.8685 33.046-30.633l0.70471-15.518 9.8741-1.358c5.4308-0.747 10.578-0.5954 11.439 0.3367 2.2668 2.4554 8.2344 37.125 8.5247 49.525 0.23966 10.236-0.0857 10.909-10.257 21.208-5.7774 5.85-12.655 11.787-15.283 13.194-2.6283 1.4066-9.9606 7.7394-16.294 14.073-11.862 11.862-14.026 12.624-25.997 9.1486z" fill="#e9841e" stroke="#e9841e" stroke-width="13.333"/>
   <path transform="scale(.75)" d="m511.4 1265.2c-3.2643-0.8306-11.389-1.6155-18.055-1.7443l-12.12-0.2341-0.9076-10.944c-0.74974-9.0409-2.0418-12.115-7.429-17.673-3.5867-3.7006-9.0752-7.7862-12.197-9.0792-3.1214-1.2929-5.6753-3.0405-5.6753-3.8836 0-3.4286 37.523-8.4977 87.925-11.878 19.861-1.3321 31.029-2.9429 34.028-4.9081 4.663-3.0553 8.5876-13.766 8.6064-23.488 0.0103-5.3137 0.41763-5.6065 6.1934-4.4513 3.4003 0.68 7.0529 1.2364 8.1168 1.2364 2.8362 0 0.86169 47.307-2.2374 53.605-1.8835 3.8276-10.417 9.0019-33.508 20.318-31.985 15.674-37.414 17.025-52.742 13.125z" fill="#e9841e" stroke="#e9841e" stroke-width="13.333"/>
   <path transform="scale(.75)" d="m445.55 676.32c-19.447-2.22-41.414-6.9786-58.353-12.641-27.332-9.1364-72.572-31.149-79.09-38.482-3.7638-4.2348-4.0766-8.5052-0.69945-9.5494 1.3464-0.41632 14.723-1.7367 29.727-2.9343 47.276-3.7735 65.567-7.6565 87.432-18.561 12.359-6.1639 18.695-10.493 37.39-25.545 14.985-12.065 21.543-15.349 30.619-15.334 15.61 0.0257 25.611 8.8752 34.772 30.768 12.935 30.91 20.938 39.49 51.507 55.211 7.1495 3.677 12.783 7.3948 12.519 8.2618-0.75608 2.4804-25.524 14.283-40.153 19.134-22.642 7.508-37.014 9.7255-67.2 10.369-15.003 0.31961-32.315 6e-3 -38.47-0.69641zm54.683-63.615c3.669-4.6014 6.1694-12.501 6.1694-19.491 0-6.4231-6.1917-13.369-11.917-13.369-9.2659 0-15.539 8.4914-17.053 23.082-0.65456 6.3092-0.33457 7.3856 3.2659 10.986 3.5098 3.5094 4.7474 3.906 10.253 3.2854 4.622-0.52097 7.0525-1.6975 9.2816-4.4931z" fill="#e9841e" stroke="#e9841e" stroke-width="13.333"/>
   <path transform="scale(.75)" d="m853.33 440.27c-8.4634-6.2304-31.755-19.376-51.76-29.212-64.517-31.723-126.33-48.163-192.42-51.179l-38.545-1.7589 37.45-46.532c69.448-86.289 125.57-152 182.04-213.13 25.068-27.138 25.374-27.357 27.436-19.646 9.6609 36.123 55.387 339.92 55.387 367.98 0 7.0537-2.0915 6.3573-19.585-6.5204zm-68.913-93.355c14.446-6.8552 30.317-23.217 38.121-39.3 9.4297-19.435 9.9316-58.803 0.9611-75.397-12.228-22.621-31.437-35.267-67.931-44.723-22.12-5.732-25.033-5.4144-28.263 3.0821-5.3502 14.072-41.843 139.94-41.843 144.32 0 4.0371 23.257 11.996 50.361 17.233 12.611 2.4369 38.27-0.31825 48.595-5.2179z" fill="#e9841e" stroke="#e9841e" stroke-width="13.333"/>
   <path transform="scale(.75)" d="m732.17 317.62c-2.2052-0.47386-4.1646-1.0167-4.3542-1.2063-0.18959-0.1896 5.0063-18.582 11.546-40.872 16.951-57.771 15.056-52.069 17.299-52.065 3.0532 6e-3 7.0834 1.3295 13.405 4.401 9.8778 4.7998 16.662 12.668 20.325 23.573 1.9181 5.7107 2.6746 18.885 1.4547 25.334-4.0008 21.15-17.296 37.364-33.444 40.786-5.7691 1.2225-20.64 1.2502-26.231 0.0489z" fill="#e9841e" stroke="#e9841e" stroke-width="13.333"/>
   <path d="m609.6 29.4c-2.2 0.8-6.8 4.3-10.3 7.8-13 12.7-62.5 67.2-88.9 97.8-27.6 32.1-65.7 79.2-91.7 113.7-21.6 28.8-25.4 34.3-26.2 39.2-0.6 3.4-2.2 5.5-10.7 13.8-5.5 5.4-12.4 13.1-15.5 17.1-16 21.2-30.3 53.3-38.9 87.2-3.9 15.7-3.9 15.7-17.9 22.5-14.7 7.2-30.9 10.5-61.2 12.5-9.2 0.6-19.1 1.5-22 2.1-19.6 3.9-24 27.5-7.7 41.8 13.2 11.6 53 29.3 81.9 36.5 18.8 4.7 41.2 7.6 58.5 7.6 8.5 0 8.6 0 13.5 4.1 2.8 2.2 5.6 4.6 6.3 5.3 1 1-1.4 3.4-12 12.1-15.6 12.8-39.9 36.7-48.8 48-22.1 28-35.4 56-41.5 87.5-2.6 13.1-3.1 36.2-1.1 49.9 4.6 31.3 18.2 56.9 43.5 82.1 24 23.9 49.7 39.5 86.1 52.1l13.5 4.7 0.6 12-7.3 0.6c-4 0.3-13.6 1.1-21.3 1.7s-20.1 1.9-27.6 2.9c-30.9 4.3-42.5 9.1-46.4 19.4-3.5 9 1.7 17.2 14.6 23.3l7.9 3.7v7.8c0 9.5 1.5 13.6 6.6 17.4 3.6 2.8 4.1 2.9 18.8 3.4 13.2 0.4 15.8 0.8 20.6 3 8.5 3.8 13.5 3.3 26-2.4 19.4-8.9 39.9-19.4 44.4-22.6 11.1-8 15.6-21.7 15.6-47.9v-10.4l5.3 0.7c25.1 3.1 39.6 3.9 65.5 4h28.3l-0.3 5.6c-0.4 6.5 2.4 5.2-27.8 12.5-26.6 6.5-41 10.9-50.7 15.6-13.8 6.6-19.5 14-17.2 22.4 1.7 6 5.5 9.3 17.5 15l11.2 5.4 0.7 5.6c1.7 13.6 12.5 18.9 30.9 15.1 10.6-2.2 17.7-2.1 20.7 0.3 6.7 5.2 13 6.4 19.4 3.7 4.5-1.9 37-29.3 45.6-38.3 13.2-14 14.4-21.9 8.4-52.8-2-10.3-3.5-18.8-3.3-19 0.2-0.1 4.4-1.4 9.3-2.9 32.3-9.9 69.1-29.3 95.5-50.2 10.7-8.5 29.4-27.3 38.3-38.4 15.7-19.5 31.5-47.6 40.2-71.4 4.5-12.2 10.7-36.3 13.2-51.1 2.3-13.8 2.6-55.9 0.5-70-5.1-33.7-10.5-48.6-18.8-52.1-9.2-3.9-15.3-0.8-27.9 14.1-22.9 27.2-39.5 37.7-59.5 37.6-11.4 0-17.5-2-45-14.8-32.1-14.9-50.3-22.7-78-32.9-1-0.4-0.3-1.2 2.5-2.6 9.3-4.8 27.1-20.2 37.3-32.3 28-33.3 42.7-74.9 40.8-116-0.4-7.7-1-16-1.5-18.5-0.7-3.5-0.6-4.7 0.5-5.3 2.7-1.5 4.4-6.5 4.4-13 0-7.6-6.5-65.7-11.5-102.7-5.3-39.3-13.7-93.9-22.1-144-9.9-58.7-13.6-78.1-15.7-81.3-3.4-5.2-11.7-7.6-18.1-5.3zm9.8 56.6c13.1 73.9 22.7 136 30.7 198 0.5 4.1 2.1 17.4 3.4 29.5 1.4 12.1 2.8 23.9 3.1 26.3l0.6 4.3-7.8-5.9c-47.2-35.5-116.9-61.4-180.7-67.3-11.7-1.1-36.8-0.7-41.4 0.7-1.3 0.3-2.3 0.2-2.3-0.2 0.1-1 22.4-29.7 38.5-49.4 15.7-19.3 58.8-71.2 66.4-80 28.6-33.1 46.2-52.7 69-76.8 11.2-11.9 13.7-14.1 14.3-12.5 0.4 1 3.2 16 6.2 33.3zm-142.4 205.5c25.7 3.2 53 9.8 78.6 19 34.3 12.4 69.9 32.5 86.8 48.8 7.2 7 8.5 10.2 11.1 27.4 4.2 27.9-0.6 56.8-14 83.8-13 26.4-31.7 46.6-60.3 65.3-12.5 8.1-15.2 11.3-15.2 18.1 0 6.6 2.6 8.3 23 15 22.9 7.6 38.5 14 66.4 27.2 35.6 16.9 45.1 20.3 59.5 21.5 24.1 1.8 51.5-13.7 75.1-42.5 8.7-10.6 8.6-10.6 11.8 2.2 3.9 15.8 4.7 24.3 4.7 51.7-0.1 28.5-1.3 39.5-7 62.1-5.6 21.9-18.2 51.1-29.5 68.4-27.4 41.7-67.8 74.3-115.5 93.3-18.9 7.5-42.9 14.1-57.7 15.8l-5.8 0.7v-26.5l-2.9-2.9c-3.1-3.1-7.5-3.8-11.2-1.9-3.9 2.1-4.9 6.2-4.9 19.8v13l-2.7 0.7c-5.3 1.3-50.6 0.7-67.8-1-113.8-10.9-188.3-58.7-203.6-130.6-3.2-14.9-3.2-39.1 0-53.9 10.4-48.7 38.4-87.1 95.7-131.1 10.1-7.7 11.9-15.8 5.4-24.8l-3-4.1 2.8-0.6c21.8-4.9 30.9-8 45.4-15.6 16.5-8.7 22.3-16 21.6-27.4-0.6-9.2-3.5-12.3-18.3-20-18.4-9.6-25.1-16.6-31-32.4-1.5-4.1-3.9-9.5-5.3-12-3.2-5.6-11.5-14.5-16.4-17.6-5.5-3.5-15.1-6.4-21.1-6.4-6.4 0-16 2.4-20.6 5.1-1.8 1.1-3.5 1.8-3.7 1.6-0.9-0.9 8.5-25.8 14.5-38.3 15.7-32.6 35.1-53.9 60.8-66.8 3.9-2 8.9-4 11-4.5 6.2-1.5 29.9-1.2 43.3 0.4zm-95.5 125.9c6.4 3.8 10.1 8.9 14.2 19.6 4.6 12.1 8.3 18.7 14 25 5.8 6.5 10.7 9.8 24.3 16.6 6.1 3 11 5.8 11 6.3 0 1.7-3.9 4.2-13.5 8.6-25.6 11.9-48.8 16.2-81.5 15.2-26.1-0.8-48.6-5.4-72.1-14.7-15.3-6-42.6-19.9-46.5-23.5-4.1-3.9-4.6-8.1-1.1-9.4 1.2-0.4 10.8-1.3 21.2-2 48.3-3 67.3-9.7 94.4-33 4.5-3.9 9.2-7.6 10.4-8.3 8.3-4.4 18-4.6 25.2-0.4zm70.3 483.6c-0.4 16.2-0.6 18-2.8 22.5l-2.5 5-23.5 11.8c-26.1 13.1-24.3 12.7-39.5 9.3-3.8-0.9-10.9-1.6-15.6-1.6h-8.6l0.1-7.3c0.1-5.5-0.4-8-1.9-10.6-2.7-4.6-8.1-8.7-14.9-11.5l-5.8-2.4 4.9-1.5c11.4-3.8 31.2-6.2 63.9-8 21.5-1.2 23.3-1.5 26.3-3.6 4.4-3.2 6.1-7.6 6.1-15.9v-6.9l7.1 1.6 7.1 1.5zm157.9 2.5c3.7 18.6 4.2 27.6 1.5 32-1 1.6-6.2 6.9-11.4 11.7-8.8 8.2-12 10.5-10.2 7.6 0.4-0.7 0.3-0.8-0.5-0.4-0.6 0.4-0.9 1.1-0.6 1.6 0.5 0.8-12.1 12.4-17 15.6-2.4 1.5-2.8 1.5-7.8-0.7-5.8-2.6-17.5-3.1-32.2-1.5l-8.1 0.8-0.2-3.3c-0.7-10.2-6.7-16.4-19.7-20.5-8.3-2.6-8.6-2.8-6.4-4 7.1-3.9 35.8-12 63.3-17.9 9.3-2 18.1-4.2 19.5-4.9 6.6-3.4 9.1-9.4 9.1-21.5v-9l4.8-0.6c2.6-0.4 5.2-0.8 5.7-1 0.6-0.2 2.3-0.3 4-0.2l2.9 0.2z" fill="#513407" stroke-width=".1"/>
   <path d="m548.2 139.2c-1.2 1.5-3.8 9.9-20.6 66.5-6.9 23.3-12.6 43.4-12.6 44.7 0 1.4 0.8 3 1.8 3.5s8.7 2.8 17.2 5.1c32.4 8.7 51.2 6.1 67.5-9.1 8.1-7.6 12.9-14.8 16.7-25.2 2.6-6.9 3.1-10.1 3.5-20.2 0.6-14.3-0.5-20.8-5.3-30.5-8.6-17-22.3-25.5-54.1-33.5-11.6-2.9-12.7-3-14.1-1.3zm29.2 31.2c10 4.6 16.1 13.8 17.2 25.8 1.6 17.4-7.3 34.8-21 40.9-5.5 2.4-15.4 3-23.9 1.6-4-0.7-4.7-1.2-4.2-2.5 0.3-0.9 4.9-16.3 10.1-34.2s9.7-33.1 10-33.9c0.6-1.7 5-0.9 11.8 2.3z" fill="#513407" stroke-width=".1"/>
   <path d="m484.6 359.5c-13.2 4.7-23.7 23.5-23.9 43-0.2 13.6 3.3 21.4 11.3 25.5 7.8 4 16.5 2.2 24.4-5.1 16.6-15.1 20.8-49.2 7.5-60.4-5.2-4.3-12.4-5.5-19.3-3z" fill="#513407" stroke-width=".1"/>
   <path d="m480 639.1c-4.3 1.7-6 4-8.4 11.8-8.6 27.3-3.4 57.6 13.9 80.1 39.4 51.3 133.3 67.9 198.4 35.1 26.1-13.2 50.9-39.3 64-67.1 8.5-18.1 9-27.3 2.2-34.1-5.5-5.5-7.7-5.7-22.1-2.1-25.5 6.5-38.6 8.1-53.5 6.2-21-2.6-20.8-2.6-23.8 1-3.5 4.1-3.5 8.1 0.1 12 2.4 2.7 3.8 3.2 12.7 4.5 19.3 2.9 43.8 1.5 63.2-3.4 4.3-1.1 7.9-1.8 8.1-1.6 0.9 0.8-7.4 16.8-13.5 25.9-12.1 18.2-30.8 34.4-49.4 43-9.6 4.4-24.9 9.1-36.9 11.3-14.8 2.7-43.1 2.4-57.9-0.5-40.7-8.2-70-27.2-83.6-54.3-8.1-16-9.2-32.8-3.4-52.6 1.9-6.3 2-7.6 0.9-10.4-0.9-2-2.6-3.7-4.6-4.5-1.9-0.8-3.5-1.4-3.6-1.3-0.2 0-1.4 0.5-2.8 1z" fill="#513407" stroke-width=".1"/>
   <path d="m365 437.2c-3.1 2.1-3.8 3.3-5.5 10.1-1.8 7.1-1.8 8-0.5 10.5 2.4 4.1 6.1 5.8 10.6 4.7 4.7-1.2 7.5-5.1 9.3-12.8 1-4.7 1-6-0.3-8.5-3.1-6.1-8.2-7.6-13.6-4z" fill="#513407" stroke-width=".1"/>
</svg>
